<svg id="Capa_1" enable-background="new 0 0 512 512" height="512" viewBox="0 0 512 512" width="512" xmlns="http://www.w3.org/2000/svg"><g><path d="m219.36 342.02v101.12h-167.72v-101.12l83.86-48.88z" fill="#ffe987"/><path d="m219.36 342.02v101.12h-83.86v-150z" fill="#fecb6e"/><path d="m241.43 336.49-15.44 25.73-90.49-54.3-90.49 54.3-15.44-25.73 105.93-63.55z" fill="#fd676a"/><path d="m241.43 336.49-15.44 25.73-90.49-54.3v-34.98z" fill="#fc363b"/><path d="m120.5 376.5h30v51.64h-30z" fill="#fd676a"/><path d="m135.5 376.5h15v51.64h-15z" fill="#fc363b"/><path d="m460.36 342.02v101.12h-167.72v-101.12l83.86-48.88z" fill="#ffe987"/><path d="m460.36 342.02v101.12h-83.86v-150z" fill="#fecb6e"/><path d="m482.43 336.49-15.44 25.73-90.49-54.3-90.49 54.3-15.44-25.73 105.93-63.55z" fill="#fd676a"/><path d="m482.43 336.49-15.44 25.73-90.49-54.3v-34.98z" fill="#fc363b"/><path d="m361.5 376.5h30v51.64h-30z" fill="#fd676a"/><path d="m376.5 376.5h15v51.64h-15z" fill="#fc363b"/><path d="m352.4 80.99-9.32-28.68-49.75-7.23-22.25-45.08h-30.16l-22.25 45.08-49.75 7.23-9.32 28.68 36 35.09-8.5 49.55 24.4 17.73 44.49-23.38.01-.01 44.5 23.39 24.4-17.73-8.5-49.55z" fill="#00b3ff"/><path d="m157.75 146.35-8.53-26.27-39.07-5.67-17.47-35.4h-27.61l-17.47 35.4-39.07 5.67-8.53 26.27 28.27 27.55-6.68 38.9 22.35 16.24 34.93-18.37 34.94 18.37 22.35-16.24-6.68-38.9z" fill="#00b3ff"/><path d="m512 443.14v38.86l-15 15h-241v-64.3h241z" fill="#39648e"/><path d="m497 432.7h-482l-15 10.44v38.86l15 15h482l15-15v-38.86z" fill="#9dd867"/><path d="m512 443.14v38.86l-15 15h-241v-64.3h241z" fill="#77c080"/><path d="m0 413.14h512v30h-512z" fill="#bfe471"/><path d="m0 482h512v30h-512z" fill="#bfe471"/><path d="m256 413.14h256v30h-256z" fill="#9dd867"/><path d="m256 482h256v30h-256z" fill="#9dd867"/><path d="m316.4 116.08 8.5 49.55-24.4 17.73-44.5-23.39-.01.01v-159.98h15.09l22.25 45.08 49.75 7.23 9.32 28.68z" fill="#3a80e8"/><path d="m129.48 173.9 6.68 38.9-22.35 16.24-34.94-18.37v-131.66h13.81l17.47 35.4 39.07 5.67 8.53 26.27z" fill="#3a80e8"/><path d="m512 146.35-8.53-26.27-39.07-5.67-17.47-35.4h-27.61l-17.47 35.4-39.07 5.67-8.53 26.27 28.27 27.55-6.68 38.9 22.35 16.24 34.93-18.37 34.94 18.37 22.35-16.24-6.68-38.9z" fill="#00b3ff"/><path d="m483.73 173.9 6.68 38.9-22.35 16.24-34.94-18.37v-131.66h13.81l17.47 35.4 39.07 5.67 8.53 26.27z" fill="#3a80e8"/></g></svg>