<svg id="Capa_1" enable-background="new 0 0 512 512" height="512" viewBox="0 0 512 512" width="512" xmlns="http://www.w3.org/2000/svg"><g><path d="m34.429 328.145h90.87v168.855h-90.87z" fill="#ffe987"/><path d="m0 277.57h125.298v59.697h-125.298z" fill="#39648e"/><path d="m386.702 328.145h90.87v168.855h-90.87z" fill="#fecb6e"/><path d="m386.702 277.57h125.298v59.697h-125.298z" fill="#324d75"/><g><path d="m402.29 277.57-15.59 15 15.59 15v189.43h-292.58v-189.43l15.59-15-15.59-15v-151.09l146.29-88.94 146.29 88.94z" fill="#f0f7ff"/></g><path d="m402.29 277.57-15.59 15 15.59 15v189.43h-146.29v-459.46l146.29 88.94z" fill="#d7e9fc"/><path d="m182.857 59.042v-59.042h-73.143v105.05z" fill="#fd676a"/><path d="m310.86 405.36v91.43h-109.72v-91.43c0-30.29 24.56-54.85 54.86-54.85 15.15 0 28.86 6.14 38.79 16.07 9.93 9.92 16.07 23.64 16.07 38.78z" fill="#fd676a"/><path d="m294.79 366.58c9.93 9.92 16.07 23.64 16.07 38.78v91.43h-54.86v-146.28c15.15 0 28.86 6.14 38.79 16.07z" fill="#fc363b"/><path d="m0 482h512v30h-512z" fill="#9dd867"/><path d="m256 482h256v30h-256z" fill="#77c080"/><path d="m109.71 277.57h292.58v30h-292.58z" fill="#ffe987"/><path d="m438.86 109.71v73.15l-182.86-109.72-182.86 109.72v-73.15l182.86-109.71z" fill="#39648e"/><path d="m292.57 197.49c0 20.19-16.37 36.57-36.57 36.57s-36.57-16.38-36.57-36.57c0-20.2 16.37-36.58 36.57-36.58s36.57 16.38 36.57 36.58z" fill="#ffe987"/><path d="m256 234.06v-73.15c20.2 0 36.57 16.38 36.57 36.58 0 20.19-16.37 36.57-36.57 36.57z" fill="#fecb6e"/><path d="m256 277.57h146.29v30h-146.29z" fill="#fecb6e"/><path d="m438.86 109.71v73.15l-182.86-109.72v-73.14z" fill="#324d75"/></g></svg>