<svg id="Capa_1" enable-background="new 0 0 512 512" height="512" viewBox="0 0 512 512" width="512" xmlns="http://www.w3.org/2000/svg"><g><path d="m351.714 290.429 14 221.571h146.286v-365.714l-80.143-14-70.855 14z" fill="#c0dbf2"/><path d="m365.714 73.143-4.712 73.143h150.998l-73.143-73.143z" fill="#324d75"/><path d="m365.71 73.14v438.86h-129.14l-53.71-15h-.01l-53.71 15h-129.14v-438.86l73.14-47.02h219.43z" fill="#f0f7ff"/><path d="m365.71 73.14v438.86h-129.14l-53.71-15v-470.88h109.71z" fill="#d7e9fc"/><path d="m365.71 73.14h-146.28l-36.57-36.57-36.57 36.57h-146.29l73.14-73.14h219.43z" fill="#39648e"/><path d="m365.71 73.14h-146.28l-36.57-36.57v-36.57h109.71z" fill="#324d75"/><path d="m68.857 137.714h30v30h-30z" fill="#00b3ff"/><path d="m137.714 137.714h30v30h-30z" fill="#00b3ff"/><path d="m206.571 137.714h30v30h-30z" fill="#3a80e8"/><path d="m275.429 137.714h30v30h-30z" fill="#3a80e8"/><path d="m68.857 206.571h30v30h-30z" fill="#00b3ff"/><path d="m137.714 206.571h30v30h-30z" fill="#00b3ff"/><g fill="#3a80e8"><path d="m206.571 206.571h30v30h-30z"/><path d="m275.429 206.571h30v30h-30z"/><path d="m413.143 206.571h30v30h-30z"/><path d="m413.143 275.429h30v30h-30z"/><path d="m413.143 344.286h30v30h-30z"/><path d="m413.143 413.143h30v30h-30z"/></g><path d="m68.857 275.429h30v30h-30z" fill="#00b3ff"/><path d="m137.714 275.429h30v30h-30z" fill="#00b3ff"/><path d="m206.571 275.429h30v30h-30z" fill="#3a80e8"/><path d="m137.714 344.286h30v30h-30z" fill="#00b3ff"/><path d="m206.571 344.286h30v30h-30z" fill="#3a80e8"/><path d="m275.429 275.429h30v30h-30z" fill="#3a80e8"/><path d="m68.857 344.286h30v30h-30z" fill="#00b3ff"/><path d="m275.429 344.286h30v30h-30z" fill="#3a80e8"/><path d="m68.857 413.143h30v30h-30z" fill="#00b3ff"/><path d="m275.429 413.143h30v30h-30z" fill="#3a80e8"/><path d="m129.14 413.14h107.43v98.86h-107.43z" fill="#39648e"/><path d="m182.86 413.14h53.71v98.86h-53.71z" fill="#324d75"/></g></svg>