<svg id="Capa_1" enable-background="new 0 0 512 512" height="512" viewBox="0 0 512 512" width="512" xmlns="http://www.w3.org/2000/svg"><g><path d="m402.29 162.07v276.79h-109.72l-73.14-17.15-73.14 17.15h-109.72v-276.79l182.86-109.72z" fill="#ffe987"/><path d="m402.29 162.07v276.79h-109.72l-73.14-17.15v-369.36z" fill="#fecb6e"/><path d="m73.143 0h73.143v90.42h-73.143z" fill="#fd676a"/><path d="m146.29 256h146.28v182.86h-146.28z" fill="#fd676a"/><path d="m219.43 256h73.14v182.86h-73.14z" fill="#fc363b"/><path d="m438.86 134.31v73.14l-219.43-131.66-219.43 131.66v-73.14l219.43-131.66z" fill="#39648e"/><path d="m438.86 134.31v73.14l-219.43-131.66v-73.14z" fill="#324d75"/><path d="m512 402.29c0 24.88-8.28 47.83-22.25 66.24-3.04 4-18.72 1.66-18.72 1.66s1.5 16.52-2.5 19.56c-18.41 13.97-41.36 22.25-66.24 22.25-60.6 0-109.72-49.12-109.72-109.71 0-60.6 49.12-109.72 109.72-109.72 60.59 0 109.71 49.12 109.71 109.72z" fill="#f0f7ff"/><path d="m512 402.29c0 24.88-8.28 47.83-22.25 66.24-3.04 4-18.72 1.66-18.72 1.66s1.5 16.52-2.5 19.56c-18.41 13.97-41.36 22.25-66.24 22.25v-219.43c60.59 0 109.71 49.12 109.71 109.72z" fill="#d7e9fc"/><path d="m146.29 174.64h146.28v30h-146.28z" fill="#39648e"/><path d="m219.43 174.64h73.14v30h-73.14z" fill="#324d75"/><path d="m446.18 424.97c3.53-6.8 5.53-14.51 5.53-22.68 0-27.26-22.17-49.43-49.42-49.43-27.26 0-49.43 22.17-49.43 49.43 0 27.25 22.17 49.42 49.43 49.42 8.17 0 15.88-2 22.68-5.53l43.56 43.57c8-6.07 15.15-13.22 21.22-21.22zm-43.89-3.26c-10.72 0-19.43-8.71-19.43-19.42 0-10.72 8.71-19.43 19.43-19.43 10.71 0 19.42 8.71 19.42 19.43 0 10.71-8.71 19.42-19.42 19.42z" fill="#9dd867"/><path d="m489.75 468.53c-6.07 8-13.22 15.15-21.22 21.22l-43.56-43.57c-6.8 3.53-14.51 5.53-22.68 5.53v-30c10.71 0 19.42-8.71 19.42-19.42 0-10.72-8.71-19.43-19.42-19.43v-30c27.25 0 49.42 22.17 49.42 49.43 0 8.17-2 15.88-5.53 22.68z" fill="#77c080"/></g></svg>