<svg id="Capa_1" enable-background="new 0 0 512 512" height="512" viewBox="0 0 512 512" width="512" xmlns="http://www.w3.org/2000/svg"><g><g><path d="m438.86 292.57-14 36.57 14 36.57v86h-365.72v-86l14-36.57-14-36.57v-277.57h365.72z" fill="#ffe987"/><path d="m438.86 292.57-14 36.57 14 36.57v86h-182.86v-436.71h182.86z" fill="#fecb6e"/></g><path d="m34.43 0h443.14v30h-443.14z" fill="#39648e"/><path d="m256 0h221.57v30h-221.57z" fill="#324d75"/><path d="m73.14 292.57h73.15v73.14h-73.15z" fill="#00b3ff"/><path d="m365.71 292.57h73.15v73.14h-73.15z" fill="#3a80e8"/><path d="m137.71 68.86h236.58v30h-236.58z" fill="#00b3ff"/><path d="m256 68.86h118.29v30h-118.29z" fill="#3a80e8"/><path d="m206.47 292.57h99.06v159.14h-99.06z" fill="#fd676a"/><path d="m256 292.57h49.53v159.14h-49.53z" fill="#fc363b"/><path d="m497 432.7h-482l-15 10.44v38.86l15 15h482l15-15v-38.86z" fill="#9dd867"/><path d="m512 443.14v38.86l-15 15h-241v-64.3h241z" fill="#77c080"/><path d="m0 413.14h512v30h-512z" fill="#bfe471"/><path d="m0 482h512v30h-512z" fill="#bfe471"/><path d="m256 413.14h256v30h-256z" fill="#9dd867"/><path d="m256 482h256v30h-256z" fill="#9dd867"/><path d="m36.571 146.286v36.572c0 20.198 16.374 36.571 36.571 36.571 20.198 0 36.571-16.374 36.571-36.571 0 20.198 16.374 36.571 36.571 36.571 20.198 0 36.571-16.374 36.571-36.571 0 20.198 16.374 36.571 36.571 36.571 20.198 0 36.571-16.374 36.571-36.571 0 20.198 16.374 36.571 36.571 36.571 20.198 0 36.571-16.374 36.571-36.571 0 20.198 16.374 36.571 36.571 36.571 20.198 0 36.571-16.374 36.571-36.571 0 20.198 16.374 36.571 36.571 36.571 20.198 0 36.571-16.374 36.571-36.571v-36.572z" fill="#f0f7ff"/><path d="m182.857 146.286h-73.143v36.572c0 20.198 16.374 36.571 36.571 36.571 20.198 0 36.571-16.374 36.571-36.571v-36.572z" fill="#fd676a"/><path d="m329.143 146.286h-73.143v36.572c0 20.198 16.374 36.571 36.571 36.571 20.198 0 36.571-16.374 36.571-36.571v-36.572z" fill="#fc363b"/><path d="m402.181 146.286h-73.143v36.572c0 20.198 16.374 36.571 36.571 36.571 20.198 0 36.571-16.374 36.571-36.571v-36.572z" fill="#c0dbf2"/><path d="m475.429 146.286h-73.143v36.572c0 20.198 16.374 36.571 36.571 36.571 20.198 0 36.571-16.374 36.571-36.571v-36.572z" fill="#fc363b"/></g></svg>