<svg width="60" height="18" viewBox="0 0 60 18" fill="none" xmlns="http://www.w3.org/2000/svg">
<path d="M11.06 10.26H3.26L1.58 14H0.04L6.44 -9.53674e-07H7.9L14.3 14H12.74L11.06 10.26ZM10.52 9.06L7.16 1.54L3.8 9.06H10.52ZM21.7359 3.4C22.7226 3.4 23.6159 3.62667 24.4159 4.08C25.2159 4.52 25.8426 5.14667 26.2959 5.96C26.7493 6.77333 26.9759 7.7 26.9759 8.74C26.9759 9.79333 26.7493 10.7267 26.2959 11.54C25.8426 12.3533 25.2159 12.9867 24.4159 13.44C23.6293 13.88 22.7359 14.1 21.7359 14.1C20.8826 14.1 20.1093 13.9267 19.4159 13.58C18.7359 13.22 18.1759 12.7 17.7359 12.02V17.88H16.3159V3.48H17.6759V5.56C18.1026 4.86667 18.6626 4.33333 19.3559 3.96C20.0626 3.58667 20.8559 3.4 21.7359 3.4ZM21.6359 12.84C22.3693 12.84 23.0359 12.6733 23.6359 12.34C24.2359 11.9933 24.7026 11.5067 25.0359 10.88C25.3826 10.2533 25.5559 9.54 25.5559 8.74C25.5559 7.94 25.3826 7.23333 25.0359 6.62C24.7026 5.99333 24.2359 5.50667 23.6359 5.16C23.0359 4.81333 22.3693 4.64 21.6359 4.64C20.8893 4.64 20.2159 4.81333 19.6159 5.16C19.0293 5.50667 18.5626 5.99333 18.2159 6.62C17.8826 7.23333 17.7159 7.94 17.7159 8.74C17.7159 9.54 17.8826 10.2533 18.2159 10.88C18.5626 11.5067 19.0293 11.9933 19.6159 12.34C20.2159 12.6733 20.8893 12.84 21.6359 12.84ZM33.492 3.4C34.8654 3.4 35.9187 3.74667 36.652 4.44C37.3854 5.12 37.752 6.13333 37.752 7.48V14H36.392V12.36C36.072 12.9067 35.5987 13.3333 34.972 13.64C34.3587 13.9467 33.6254 14.1 32.772 14.1C31.5987 14.1 30.6654 13.82 29.972 13.26C29.2787 12.7 28.932 11.96 28.932 11.04C28.932 10.1467 29.252 9.42667 29.892 8.88C30.5454 8.33333 31.5787 8.06 32.992 8.06H36.332V7.42C36.332 6.51333 36.0787 5.82667 35.572 5.36C35.0654 4.88 34.3254 4.64 33.352 4.64C32.6854 4.64 32.0454 4.75333 31.432 4.98C30.8187 5.19333 30.292 5.49333 29.852 5.88L29.212 4.82C29.7454 4.36667 30.3854 4.02 31.132 3.78C31.8787 3.52667 32.6654 3.4 33.492 3.4ZM32.992 12.98C33.792 12.98 34.4787 12.8 35.052 12.44C35.6254 12.0667 36.052 11.5333 36.332 10.84V9.12H33.032C31.232 9.12 30.332 9.74667 30.332 11C30.332 11.6133 30.5654 12.1 31.032 12.46C31.4987 12.8067 32.152 12.98 32.992 12.98ZM42.9689 5.54C43.3022 4.83333 43.7956 4.3 44.4489 3.94C45.1156 3.58 45.9356 3.4 46.9089 3.4V4.78L46.5689 4.76C45.4622 4.76 44.5956 5.1 43.9689 5.78C43.3422 6.46 43.0289 7.41333 43.0289 8.64V14H41.6089V3.48H42.9689V5.54ZM59.1163 3.48V14H57.7562V12.08C57.3829 12.72 56.8696 13.22 56.2163 13.58C55.5629 13.9267 54.8163 14.1 53.9763 14.1C52.6029 14.1 51.5163 13.72 50.7163 12.96C49.9296 12.1867 49.5363 11.06 49.5363 9.58V3.48H50.9563V9.44C50.9563 10.5467 51.2296 11.3867 51.7763 11.96C52.3229 12.5333 53.1029 12.82 54.1163 12.82C55.2229 12.82 56.0963 12.4867 56.7363 11.82C57.3763 11.14 57.6963 10.2 57.6963 9V3.48H59.1163Z" fill="black"/>
</svg>